%TF.GenerationSoftware,KiCad,Pcbnew,8.0.6-8.0.6-0~ubuntu24.04.1*%
%TF.CreationDate,2026-02-28T12:22:09-05:00*%
%TF.ProjectId,rook,726f6f6b-2e6b-4696-9361-645f70636258,rev?*%
%TF.SameCoordinates,Original*%
%TF.FileFunction,Soldermask,Top*%
%TF.FilePolarity,Negative*%
%FSLAX46Y46*%
G04 Gerber Fmt 4.6, Leading zero omitted, Abs format (unit mm)*
G04 Created by KiCad (PCBNEW 8.0.6-8.0.6-0~ubuntu24.04.1) date 2026-02-28 12:22:09*
%MOMM*%
%LPD*%
G01*
G04 APERTURE LIST*
G04 Aperture macros list*
%AMRoundRect*
0 Rectangle with rounded corners*
0 $1 Rounding radius*
0 $2 $3 $4 $5 $6 $7 $8 $9 X,Y pos of 4 corners*
0 Add a 4 corners polygon primitive as box body*
4,1,4,$2,$3,$4,$5,$6,$7,$8,$9,$2,$3,0*
0 Add four circle primitives for the rounded corners*
1,1,$1+$1,$2,$3*
1,1,$1+$1,$4,$5*
1,1,$1+$1,$6,$7*
1,1,$1+$1,$8,$9*
0 Add four rect primitives between the rounded corners*
20,1,$1+$1,$2,$3,$4,$5,0*
20,1,$1+$1,$4,$5,$6,$7,0*
20,1,$1+$1,$6,$7,$8,$9,0*
20,1,$1+$1,$8,$9,$2,$3,0*%
G04 Aperture macros list end*
%ADD10O,1.800000X3.500000*%
%ADD11R,1.100000X2.500000*%
%ADD12O,1.100000X2.500000*%
%ADD13RoundRect,0.050800X-0.250000X0.775000X-0.250000X-0.775000X0.250000X-0.775000X0.250000X0.775000X0*%
%ADD14RoundRect,0.050800X-0.600000X0.900000X-0.600000X-0.900000X0.600000X-0.900000X0.600000X0.900000X0*%
%ADD15R,1.000000X1.500000*%
%ADD16C,1.752600*%
%ADD17O,1.600000X1.600000*%
%ADD18C,1.600000*%
%ADD19C,2.100000*%
%ADD20C,1.750000*%
%ADD21RoundRect,0.250000X0.450000X-0.350000X0.450000X0.350000X-0.450000X0.350000X-0.450000X-0.350000X0*%
%ADD22C,3.200000*%
%ADD23RoundRect,0.250000X-0.350000X-0.450000X0.350000X-0.450000X0.350000X0.450000X-0.350000X0.450000X0*%
%ADD24RoundRect,0.250000X-0.450000X0.350000X-0.450000X-0.350000X0.450000X-0.350000X0.450000X0.350000X0*%
%ADD25O,1.700000X1.700000*%
%ADD26R,1.700000X1.700000*%
%ADD27RoundRect,0.300000X0.750000X0.000010X-0.750000X0.000010X-0.750000X-0.000010X0.750000X-0.000010X0*%
%ADD28RoundRect,0.150000X0.150000X-0.587500X0.150000X0.587500X-0.150000X0.587500X-0.150000X-0.587500X0*%
%ADD29O,1.350000X1.350000*%
%ADD30R,1.350000X1.350000*%
%ADD31RoundRect,0.250000X0.350000X0.450000X-0.350000X0.450000X-0.350000X-0.450000X0.350000X-0.450000X0*%
%ADD32R,0.700000X1.750000*%
%ADD33R,1.300000X1.500000*%
%ADD34R,0.800000X1.500000*%
%ADD35R,0.800000X1.400000*%
%ADD36R,1.500000X1.500000*%
%ADD37R,1.000000X1.550000*%
%ADD38R,1.450000X1.000000*%
%ADD39R,2.600000X2.600000*%
%ADD40C,2.600000*%
%ADD41RoundRect,0.250000X0.350000X0.625000X-0.350000X0.625000X-0.350000X-0.625000X0.350000X-0.625000X0*%
%ADD42O,1.200000X1.750000*%
G04 APERTURE END LIST*
D10*
%TO.C,J8*%
X15375000Y-40450000D03*
X7175000Y-40450000D03*
D11*
X13275000Y-40450000D03*
D12*
X11275000Y-40450000D03*
X9275000Y-40450000D03*
%TD*%
D10*
%TO.C,TFT_BL1*%
X67850000Y-40375000D03*
X59650000Y-40375000D03*
D11*
X65750000Y-40375000D03*
D12*
X63750000Y-40375000D03*
X61750000Y-40375000D03*
%TD*%
D13*
%TO.C,J6*%
X66500000Y-2114000D03*
X65500000Y-2114000D03*
X64500000Y-2114000D03*
X63500000Y-2114000D03*
D14*
X67800000Y1786000D03*
X62200000Y1786000D03*
%TD*%
D15*
%TO.C,JP2*%
X65500000Y-33000000D03*
X64200000Y-33000000D03*
%TD*%
D16*
%TO.C,U2*%
X2115000Y-30315000D03*
X4655000Y-30315000D03*
X7195000Y-30315000D03*
X9735000Y-30315000D03*
X12275000Y-30315000D03*
X14815000Y-30315000D03*
X17355000Y-30315000D03*
X19895000Y-30315000D03*
X22435000Y-30315000D03*
X24975000Y-30315000D03*
X27515000Y-30315000D03*
X30055000Y-30315000D03*
X30055000Y-15075000D03*
X27515000Y-15075000D03*
X24975000Y-15075000D03*
X22435000Y-15075000D03*
X19895000Y-15075000D03*
X17355000Y-15075000D03*
X14815000Y-15075000D03*
X12275000Y-15075000D03*
X9735000Y-15075000D03*
X7195000Y-15075000D03*
X4655000Y-15075000D03*
X2115000Y-15075000D03*
X-425000Y-15075000D03*
X-425000Y-30315000D03*
%TD*%
D17*
%TO.C,R10*%
X46021428Y-14640000D03*
D18*
X46021428Y-24800000D03*
%TD*%
D19*
%TO.C,B3*%
X70935000Y-26537500D03*
X70935000Y-33547500D03*
D20*
X73425000Y-27787500D03*
X73425000Y-32287500D03*
%TD*%
D19*
%TO.C,B1*%
X70935000Y-5412500D03*
X70935000Y-12422500D03*
D20*
X73425000Y-6662500D03*
X73425000Y-11162500D03*
%TD*%
D15*
%TO.C,JP1*%
X60750000Y-33000000D03*
X59450000Y-33000000D03*
%TD*%
D21*
%TO.C,R9*%
X46050000Y-18125000D03*
X46050000Y-20125000D03*
%TD*%
D22*
%TO.C,H4*%
X0Y-40000000D03*
%TD*%
D17*
%TO.C,R13*%
X56028570Y-24800000D03*
D18*
X56028570Y-14640000D03*
%TD*%
D23*
%TO.C,R20*%
X23375000Y-24425000D03*
X21375000Y-24425000D03*
%TD*%
D19*
%TO.C,B2*%
X70935000Y-15975000D03*
X70935000Y-22985000D03*
D20*
X73425000Y-17225000D03*
X73425000Y-21725000D03*
%TD*%
D21*
%TO.C,R16*%
X56025000Y-18150000D03*
X56025000Y-20150000D03*
%TD*%
D17*
%TO.C,R21*%
X62700000Y-24800000D03*
D18*
X62700000Y-14640000D03*
%TD*%
%TO.C,R1*%
X14055000Y-18907145D03*
D17*
X3895000Y-18907145D03*
%TD*%
D22*
%TO.C,H1*%
X0Y0D03*
%TD*%
D17*
%TO.C,R23*%
X59364284Y-24800000D03*
D18*
X59364284Y-14640000D03*
%TD*%
D24*
%TO.C,R8*%
X42725000Y-20150000D03*
X42725000Y-18150000D03*
%TD*%
D25*
%TO.C,J3*%
X45080000Y-7525000D03*
X47620000Y-7525000D03*
X50160000Y-7525000D03*
D26*
X52700000Y-7525000D03*
%TD*%
D17*
%TO.C,R3*%
X39350000Y-24800000D03*
D18*
X39350000Y-14640000D03*
%TD*%
D24*
%TO.C,R7*%
X39325000Y-18150000D03*
X39325000Y-20150000D03*
%TD*%
D22*
%TO.C,H2*%
X73000000Y0D03*
%TD*%
D24*
%TO.C,R22*%
X62600000Y-20150000D03*
X62600000Y-18150000D03*
%TD*%
D17*
%TO.C,R11*%
X52692856Y-24800000D03*
D18*
X52692856Y-14640000D03*
%TD*%
D24*
%TO.C,R24*%
X59375000Y-20150000D03*
X59375000Y-18150000D03*
%TD*%
D22*
%TO.C,H3*%
X73000000Y-40000000D03*
%TD*%
D18*
%TO.C,R19*%
X17965000Y-24400000D03*
D17*
X28125000Y-24400000D03*
%TD*%
D27*
%TO.C,U1*%
X35450000Y-8650000D03*
X35450000Y-7380000D03*
X35450000Y-6110000D03*
X35450000Y-4840000D03*
X35450000Y-3570000D03*
X35450000Y-2300000D03*
X35450000Y-1030000D03*
X35450000Y240000D03*
X24550000Y-3570000D03*
X24550000Y-4840000D03*
X24550000Y-6110000D03*
X24550000Y-7380000D03*
%TD*%
D19*
%TO.C,RESET1*%
X2490000Y-11950000D03*
X2490000Y-4940000D03*
D20*
X0Y-10700000D03*
X0Y-6200000D03*
%TD*%
D23*
%TO.C,R17*%
X21485000Y-18900000D03*
X23485000Y-18900000D03*
%TD*%
D15*
%TO.C,JP3*%
X58450000Y-9000000D03*
X59750000Y-9000000D03*
%TD*%
D26*
%TO.C,U5*%
X58850000Y400000D03*
D25*
X56310000Y400000D03*
X53770000Y400000D03*
X51230000Y400000D03*
X48690000Y400000D03*
X46150000Y400000D03*
X43610000Y400000D03*
X41070000Y400000D03*
%TD*%
D28*
%TO.C,Q2*%
X63950000Y-10200000D03*
X65850000Y-10200000D03*
X64900000Y-8325000D03*
%TD*%
D25*
%TO.C,J11*%
X34400000Y-23000000D03*
X34400000Y-20460000D03*
X34400000Y-17920000D03*
D26*
X34400000Y-15380000D03*
%TD*%
D29*
%TO.C,U4*%
X32325000Y-36850000D03*
X34325000Y-36850000D03*
X36325000Y-36850000D03*
D30*
X38325000Y-36850000D03*
%TD*%
D21*
%TO.C,R18*%
X52725000Y-18150000D03*
X52725000Y-20150000D03*
%TD*%
D24*
%TO.C,R15*%
X49400000Y-20150000D03*
X49400000Y-18150000D03*
%TD*%
D18*
%TO.C,R14*%
X18025000Y-18850000D03*
D17*
X28185000Y-18850000D03*
%TD*%
%TO.C,R12*%
X49357142Y-24800000D03*
D18*
X49357142Y-14640000D03*
%TD*%
D31*
%TO.C,R6*%
X9525000Y-18850000D03*
X7525000Y-18850000D03*
%TD*%
D23*
%TO.C,R5*%
X7655000Y-24328570D03*
X9655000Y-24328570D03*
%TD*%
D17*
%TO.C,R4*%
X42685714Y-24800000D03*
D18*
X42685714Y-14640000D03*
%TD*%
%TO.C,R2*%
X4025000Y-24400000D03*
D17*
X14185000Y-24400000D03*
%TD*%
D32*
%TO.C,J10*%
X10600000Y-525000D03*
X11700000Y-525000D03*
X12800000Y-525000D03*
X13900000Y-525000D03*
X15000000Y-525000D03*
X16100000Y-525000D03*
X17200000Y-525000D03*
X18300000Y-525000D03*
D33*
X19500000Y-650000D03*
D34*
X19750000Y-8250000D03*
D35*
X7800000Y-8900000D03*
D36*
X8150000Y-650000D03*
D37*
X8200000Y-11325000D03*
D38*
X19425000Y-9750000D03*
%TD*%
D39*
%TO.C,J7*%
X43825000Y-36325000D03*
D40*
X48905000Y-36325000D03*
X53985000Y-36325000D03*
%TD*%
D26*
%TO.C,J5*%
X20180000Y-33825000D03*
D25*
X22720000Y-33825000D03*
X25260000Y-33825000D03*
X27800000Y-33825000D03*
%TD*%
D26*
%TO.C,J4*%
X22640000Y-1670000D03*
%TD*%
D25*
%TO.C,J2*%
X65800000Y-15542500D03*
X65800000Y-18082500D03*
X65800000Y-20622500D03*
D26*
X65800000Y-23162500D03*
%TD*%
D41*
%TO.C,J1*%
X25675000Y-41000000D03*
D42*
X23675000Y-41000000D03*
%TD*%
M02*
