M48
; DRILL file {KiCad 8.0.6-8.0.6-0~ubuntu24.04.1} date 2026-02-28T12:22:12-0500
; FORMAT={-:-/ absolute / inch / decimal}
; #@! TF.CreationDate,2026-02-28T12:22:12-05:00
; #@! TF.GenerationSoftware,Kicad,Pcbnew,8.0.6-8.0.6-0~ubuntu24.04.1
; #@! TF.FileFunction,MixedPlating,1,2
FMAT,2
INCH
; #@! TA.AperFunction,Plated,PTH,ViaDrill
T1C0.0118
; #@! TA.AperFunction,Plated,PTH,ComponentDrill
T2C0.0295
; #@! TA.AperFunction,Plated,PTH,ComponentDrill
T3C0.0315
; #@! TA.AperFunction,Plated,PTH,ComponentDrill
T4C0.0354
; #@! TA.AperFunction,Plated,PTH,ComponentDrill
T5C0.0390
; #@! TA.AperFunction,Plated,PTH,ComponentDrill
T6C0.0394
; #@! TA.AperFunction,Plated,PTH,ComponentDrill
T7C0.0430
; #@! TA.AperFunction,Plated,PTH,ComponentDrill
T8C0.0472
; #@! TA.AperFunction,Plated,PTH,ComponentDrill
T9C0.0512
; #@! TA.AperFunction,NonPlated,NPTH,ComponentDrill
T10C0.1260
%
G90
G05
T1
X-0.0748Y-0.9606
X-0.0748Y-1.3976
X-0.0167Y-0.749
X-0.0167Y-1.0709
X0.0827Y-0.9557
X0.1063Y-1.3071
X0.2165Y-0.2795
X0.2677Y-0.4213
X0.2795Y-1.0709
X0.2835Y-0.8465
X0.374Y0.0748
X0.4409Y-1.4843
X0.4488Y-0.5276
X0.4606Y-0.0787
X0.4803Y-0.4961
X0.4961Y-0.7444
X0.5039Y-0.0709
X0.5039Y-0.2205
X0.5217Y-1.4006
X0.5472Y0.0748
X0.5472Y0.0276
X0.5866Y-1.2815
X0.5906Y-0.0787
X0.5906Y-0.4488
X0.6063Y-1.063
X0.6063Y-1.3898
X0.6339Y-0.0748
X0.6339Y-0.1811
X0.6614Y-0.6535
X0.6772Y-0.0787
X0.6969Y-0.8622
X0.7244Y-1.1575
X0.7559Y-0.252
X0.7677Y-0.0748
X0.7677Y-0.185
X0.7795Y-1.0472
X0.7913Y-1.2638
X0.7953Y-0.9606
X0.8031Y0.0315
X0.8031Y-0.748
X0.811Y-1.1339
X0.8189Y-0.378
X0.8268Y-0.3071
X0.8268Y-0.4606
X0.8898Y-0.4094
X0.8976Y-0.4705
X0.9055Y-0.2441
X0.9134Y-1.1378
X0.9281Y-1.5236
X0.9921Y-1.2776
X0.9961Y-1.5236
X1.0315Y-0.189
X1.0472Y-0.1024
X1.0472Y-0.2283
X1.0512Y-1.4803
X1.063Y-1.6142
X1.0866Y-0.3071
X1.1102Y-0.378
X1.1181Y-0.2598
X1.1181Y-1.0236
X1.1299Y-0.5236
X1.1654Y-0.7244
X1.1654Y-1.3071
X1.1811Y-0.3386
X1.2047Y-0.1496
X1.2126Y-1.5669
X1.248Y-1.1935
X1.252Y-0.5197
X1.2717Y-1.5236
X1.2835Y-0.6299
X1.2913Y-1.0236
X1.2992Y-1.2205
X1.3228Y-0.378
X1.3307Y0.0709
X1.3307Y0.0079
X1.3504Y-1.3583
X1.3858Y-1.0236
X1.4331Y-1.2205
X1.439Y-0.8061
X1.4646Y-0.0866
X1.4646Y-0.4626
X1.4646Y-0.6535
X1.4724Y-1.5669
X1.4803Y-0.5906
X1.4882Y-1.3937
X1.4961Y-0.6811
X1.5197Y-0.0406
X1.5512Y-0.437
X1.563Y-0.0827
X1.5669Y-1.1083
X1.5866Y-1.2776
X1.5984Y-0.7087
X1.6142Y-0.0433
X1.6142Y-0.1535
X1.6142Y-0.4882
X1.6378Y-0.6299
X1.6378Y-0.7087
X1.6395Y-0.1909
X1.6614Y-1.2008
X1.6693Y-0.1181
X1.6772Y-0.3937
X1.6772Y-0.4488
X1.6969Y-0.2441
X1.7165Y-0.1969
X1.748Y-0.5748
X1.748Y-0.7165
X1.748Y-0.7874
X1.748Y-0.9764
X1.748Y-1.2205
X1.7638Y-0.0433
X1.7756Y-0.2008
X1.7795Y-0.1024
X1.8504Y-0.8268
X1.8661Y-0.1575
X1.8819Y-0.0394
X1.8898Y-1.0315
X1.8976Y-0.6929
X1.9016Y-0.815
X1.9055Y-0.6063
X1.9055Y-0.9213
X1.9134Y-1.2205
X1.9134Y-1.3465
X1.9252Y-1.063
X1.9252Y-1.5866
X1.9528Y-0.0394
X1.9528Y-1.315
X1.9606Y-0.4665
X1.9764Y-0.0709
X1.9902Y-0.8191
X1.9921Y-0.7165
X2.0157Y-1.0236
X2.0315Y-0.7953
X2.063Y-0.4409
X2.0745Y-1.2776
X2.1181Y-0.685
X2.1181Y-1.2244
X2.126Y-1.5236
X2.1319Y-0.437
X2.1319Y-0.7323
X2.1319Y-0.8976
X2.1575Y-1.1142
X2.1614Y-0.2835
X2.2047Y-0.4252
X2.2126Y-1.4803
X2.2126Y-1.5866
X2.2205Y-0.1614
X2.2244Y-0.2441
X2.2244Y-0.3543
X2.252Y-0.7008
X2.2677Y-0.5748
X2.2717Y-0.7913
X2.2717Y-0.9764
X2.2717Y-1.2205
X2.315Y-1.4803
X2.3386Y-0.6693
X2.3898Y-0.0827
X2.3898Y-0.1614
X2.4016Y-0.6732
X2.4173Y-1.0984
X2.4331Y-1.3071
X2.4409Y-0.3105
X2.4528Y-0.4567
X2.4646Y-0.1654
X2.4646Y-0.8346
X2.4646Y-0.8976
X2.4685Y-0.6732
X2.4803Y-1.063
X2.5Y0.0039
X2.5394Y-0.1378
X2.5394Y-0.2008
X2.5906Y-0.3307
X2.5906Y-0.9764
X2.5906Y-1.4803
X2.6378Y-1.2323
X2.6535Y-0.248
X2.6575Y-0.4016
X2.6772Y-1.2598
X2.6791Y-0.8425
X2.6929Y-0.2874
X2.6929Y-0.3543
X2.6929Y-0.6647
X2.6932Y-0.7168
X2.7087Y-1.0157
X2.8858Y-0.3622
T2
X0.9321Y-1.6142
X1.0108Y-1.6142
T3
X0.1533Y-0.7444
X0.1585Y-0.9606
X0.5533Y-0.7444
X0.5585Y-0.9606
X0.7073Y-0.9606
X0.7096Y-0.7421
X1.1073Y-0.9606
X1.1096Y-0.7421
X1.2726Y-1.4508
X1.3514Y-1.4508
X1.4301Y-1.4508
X1.5089Y-1.4508
X1.5492Y-0.5764
X1.5492Y-0.9764
X1.6805Y-0.5764
X1.6805Y-0.9764
X1.8119Y-0.5764
X1.8119Y-0.9764
X1.9432Y-0.5764
X1.9432Y-0.9764
X2.0745Y-0.5764
X2.0745Y-0.9764
X2.2058Y-0.5764
X2.2058Y-0.9764
X2.3372Y-0.5764
X2.3372Y-0.9764
X2.4685Y-0.5764
X2.4685Y-0.9764
T4
X0.3652Y-1.5925
X0.4439Y-1.5925
X0.5226Y-1.5925
X2.4311Y-1.5896
X2.5098Y-1.5896
X2.5886Y-1.5896
T5
X0.0Y-0.2441
X0.0Y-0.4213
X2.8907Y-0.2623
X2.8907Y-0.4395
X2.8907Y-0.6781
X2.8907Y-0.8553
X2.8907Y-1.094
X2.8907Y-1.2712
T6
X0.7945Y-1.3317
X0.8913Y-0.0657
X0.8945Y-1.3317
X0.9945Y-1.3317
X1.0945Y-1.3317
X1.3543Y-0.6055
X1.3543Y-0.7055
X1.3543Y-0.8055
X1.3543Y-0.9055
X1.6169Y0.0157
X1.7169Y0.0157
X1.7748Y-0.2963
X1.8169Y0.0157
X1.8748Y-0.2963
X1.9169Y0.0157
X1.9748Y-0.2963
X2.0169Y0.0157
X2.0748Y-0.2963
X2.1169Y0.0157
X2.2169Y0.0157
X2.3169Y0.0157
X2.5906Y-0.6119
X2.5906Y-0.7119
X2.5906Y-0.8119
X2.5906Y-0.9119
T7
X-0.0167Y-0.5935
X-0.0167Y-1.1935
X0.0833Y-0.5935
X0.0833Y-1.1935
X0.1833Y-0.5935
X0.1833Y-1.1935
X0.2833Y-0.5935
X0.2833Y-1.1935
X0.3833Y-0.5935
X0.3833Y-1.1935
X0.4833Y-0.5935
X0.4833Y-1.1935
X0.5833Y-0.5935
X0.5833Y-1.1935
X0.6833Y-0.5935
X0.6833Y-1.1935
X0.7833Y-0.5935
X0.7833Y-1.1935
X0.8833Y-0.5935
X0.8833Y-1.1935
X0.9833Y-0.5935
X0.9833Y-1.1935
X1.0833Y-0.5935
X1.0833Y-1.1935
X1.1833Y-0.5935
X1.1833Y-1.1935
T8
X0.2825Y-1.5925
X0.6053Y-1.5925
X2.3484Y-1.5896
X2.6713Y-1.5896
T9
X0.098Y-0.1945
X0.098Y-0.4705
X1.7254Y-1.4301
X1.9254Y-1.4301
X2.1254Y-1.4301
X2.7927Y-0.2131
X2.7927Y-0.4891
X2.7927Y-0.6289
X2.7927Y-0.9049
X2.7927Y-1.0448
X2.7927Y-1.3208
T10
X0.0Y0.0
X0.0Y-1.5748
X2.874Y0.0
X2.874Y-1.5748
M30
